<svg xmlns="http://www.w3.org/2000/svg" xmlns:xlink="http://www.w3.org/1999/xlink" width="281.327" height="209.675" viewBox="0 0 281.327 209.675">
  <defs>
    <linearGradient id="linear-gradient" x1="0.5" y1="1" x2="0.5" gradientUnits="objectBoundingBox">
      <stop offset="0" stop-color="gray" stop-opacity="0.251"/>
      <stop offset="0.54" stop-color="gray" stop-opacity="0.122"/>
      <stop offset="1" stop-color="gray" stop-opacity="0.102"/>
    </linearGradient>
  </defs>
  <g id="undraw_studying_s3l7" transform="translate(-0.012 -0.057)">
    <path id="Path_30" data-name="Path 30" d="M347.17,191.883c-.05.3-.1.6-.157.892a109.509,109.509,0,0,1-9.114,28.866q-.215.446-.438.893a82.494,82.494,0,0,1-10.269,15.837,32.863,32.863,0,0,1-7.376,6.922c-3.958,2.523-8.585,3.549-13.133,4.388-4.725.874-9.512,1.594-14.288,2.391q-2.539.414-5.047.869c-4.614.834-9.193,1.8-13.664,3.076a71.029,71.029,0,0,0-15.937,6.556q-.606.345-1.2.709c-.4.239-.8.483-1.182.733s-.773.5-1.155.749l-.59.4c-.194.128-.385.266-.576.393-.568.388-1.129.8-1.689,1.19l-.021.016q-.554.4-1.1.8c-2.069,1.533-4.093,3.137-6.109,4.747l-1.272,1.017-1.971,1.559c-.385.305-.776.608-1.163.911-.282.22-.56.441-.847.659-1.437,1.108-2.893,2.191-4.378,3.227-.353.247-.712.494-1.062.736a56.018,56.018,0,0,1-9.44,5.2l-.042.019a37.455,37.455,0,0,1-5.015,1.729,30.014,30.014,0,0,1-2.954.64,26.106,26.106,0,0,1-8.009.138c-5.23-.741-10.131-3.187-15.348-4.006-10.763-1.671-21.216,3.719-31.344,7.95q-3.719,1.557-7.52,2.922-2.518.908-5.06,1.729a159.319,159.319,0,0,1-31.75,6.792,73.369,73.369,0,0,1-13.481.364,45.528,45.528,0,0,1-5.047-.656A29.13,29.13,0,0,1,83.175,295.8a35.709,35.709,0,0,1-7.956-12.376q-1.15-2.771-2.027-5.668a63.219,63.219,0,0,1-2.064-9.252c-.1-.707-.2-1.416-.266-2.125q-.207-1.825-.308-3.666a63.484,63.484,0,0,1,1.889-19.391c1.809-7.01,4.826-13.722,6.155-20.8.056-.3.106-.6.157-.893q.266-1.594.4-3.246c.669-8.654-1.92-17.125-3.966-25.609-.072-.3-.143-.595-.213-.892q-.332-1.41-.63-2.824a71.411,71.411,0,0,1-.73-27.529c.053-.3.114-.6.175-.893A44.53,44.53,0,0,1,80,145.117a53.786,53.786,0,0,1,11.688-12.365q3.227-2.577,6.675-4.821,2.478-1.61,5.047-3.047a84.117,84.117,0,0,1,45.231-10.625q1.24.064,2.476.17,1.3.112,2.585.266c10.049,1.161,19.826,4.038,29.546,7.185q4.885,1.594,9.754,3.188,2.168.707,4.332,1.395c7.079,2.234,14.275,4.25,21.537,5.769q2.526.531,5.047.97a119.288,119.288,0,0,0,17.688,1.822q3.453.085,6.906-.072,1.745-.08,3.493-.234c12.035-1.031,23.641-4.486,35.294-7.732,1.684-.47,3.371-.938,5.047-1.389,2.215-.6,4.433-1.171,6.659-1.7,13.86-3.328,26.212-1.416,39.1,5.448,2.922,1.559,5.844,3.44,7.65,6.351s2.245,6.516,2.579,9.985c.473,4.935.8,9.94.9,14.965,0,.3,0,.6.019.893A159.224,159.224,0,0,1,347.17,191.883Z" transform="translate(-70.44 -98.469)" fill="#6c63ff" opacity="0.1"/>
    <path id="Path_31" data-name="Path 31" d="M263.969,221.932h-.906v.893h1.025Zm-10.266,0a.057.057,0,0,0,0,.021l-.08.738v.133h7.863v-.053l.56-.839Zm-21.024,0V193.067h9.031c-.1-.08-.194-.159-.295-.234l-.133-.1c-.056-.045-.112-.088-.17-.128s-.2-.141-.3-.21-.167-.114-.266-.17l-.061-.04h-7.807V190.6l-.21.1-.223.125h-.016l-.048.029-.138.09c-.048.029-.1.058-.141.09-.138.093-.266.194-.412.3l-.133.106c-.09.069-.175.141-.266.212-.353.29-.7.592-1.063.871-.09.072-.181.141-.266.207a6.861,6.861,0,0,1-.6.393,2.861,2.861,0,0,1-.266.146l-.149.069-.135.058h0a5.645,5.645,0,0,1-.988.313v28.217H214.08a.409.409,0,0,0,.027.093c.074.266.149.531.22.8h13.3v30.943h.207l.236.016.43.032.7.069.313.037.345.042h.05c.2.027.4.058.606.09l.13.021.292.048.42.074h0l1.007-.053h0l.138.029a.8.8,0,0,1,.17.035V222.825H253.6v-.133l.08-.738a.058.058,0,0,1,0-.021Zm31.291,0h-.906v.893h1.025Zm-10.832,0-.09.893h8.747l.595-.893Zm-20.453,0V193.067h9.031c-.1-.08-.194-.159-.295-.234l-.133-.1c-.056-.045-.112-.088-.17-.128s-.2-.141-.3-.21-.167-.114-.266-.17l-.061-.04h-7.812V190.6l-.21.1-.223.125h-.016l-.048.029-.138.09c-.048.029-.1.058-.141.09-.138.093-.266.194-.412.3l-.133.106c-.09.069-.175.141-.266.212-.353.29-.7.592-1.063.871-.09.072-.181.141-.266.207a6.861,6.861,0,0,1-.6.393,2.861,2.861,0,0,1-.266.146l-.149.069-.135.058h0a5.645,5.645,0,0,1-.988.313v28.217H214.08a.409.409,0,0,0,.027.093c.074.266.151.531.223.8h13.3v30.94l.207.013.236.016.43.032.7.069.313.037.345.042h.05c.2.027.4.058.606.09l.13.021.292.048.42.074h0l1.007-.053h0l.138.029a.807.807,0,0,1,.17.035V222.825h20.376l.1-.893Zm68.441-60.111h56.9c0-.3,0-.595-.019-.893H301.125V125.882c-1.689.452-3.376.919-5.047,1.389v33.657H234.187l-.157-.17.236-.266h0l23.019-25.264q-3.453.159-6.906.072l-17.7,19.417V133.487q-2.534-.438-5.047-.97v21.223l-25.88-28.387c-3.249-1.062-6.5-2.144-9.754-3.188l35.177,38.593-.157.17H162.453V114.976q-1.291-.146-2.585-.266-1.235-.109-2.476-.17v46.389H112.162V125.176q-2.574,1.434-5.047,3.047v32.706h-24.6c-.061.295-.122.6-.175.893h24.754v30.353H83.711c.069.3.141.595.213.892H107.1v28.866H87.477c-.05.3-.1.6-.157.893H107.1v80.71a45.529,45.529,0,0,0,5.047.656V222.825h45.241v74.21q2.545-.826,5.06-1.729V222.825h65.169v64.839a37.458,37.458,0,0,0,5.015-1.729l.043-.019V222.825h63.384v30.406q2.521-.454,5.047-.869V222.825h45.069q.223-.446.438-.893H301.125V193.067h54.621c.056-.3.106-.6.157-.892H301.125Zm-188.961,0h45.228v30.353H112.162Zm0,60.111V193.067h45.228v28.866Zm50.291-60.111h65.166v30.353H162.453Zm0,60.111V193.067h65.166v28.866Zm133.61,0H232.679V193.067h63.384Zm0-29.75H232.679V162.634l.89-.813h62.494Zm-42.359,29.75a.057.057,0,0,0,0,.021l-.08.738v.133h7.863v-.053l.56-.839Zm10.266,0h-.906v.893h1.025Zm-31.291,0V193.067h9.031c-.1-.08-.194-.159-.295-.234l-.133-.1c-.056-.045-.112-.088-.17-.128s-.2-.141-.3-.21-.167-.114-.266-.17l-.061-.04h-7.809V190.6l-.21.1-.223.125h-.016l-.048.029-.138.09c-.048.029-.1.058-.141.09-.138.093-.266.194-.412.3l-.133.106c-.09.069-.175.141-.266.212-.353.29-.7.592-1.063.871-.09.072-.181.141-.266.207a6.861,6.861,0,0,1-.6.393,2.861,2.861,0,0,1-.266.146l-.149.069-.135.058h0a5.645,5.645,0,0,1-.988.313v28.217H214.08a.409.409,0,0,0,.027.093c.074.266.149.531.22.8h13.3v30.943h.207l.236.016.43.032.7.069.313.037.345.042h.05c.2.027.4.058.606.09l.13.021.292.048.42.074h0l1.007-.053h0l.138.029a.8.8,0,0,1,.17.035V222.825H253.6v-.133l.08-.738a.058.058,0,0,1,0-.021Z" transform="translate(-79.17 -98.76)" fill="#6c63ff" opacity="0.1"/>
    <path id="Path_32" data-name="Path 32" d="M271.853,208.617h.4a.967.967,0,0,1-.481-.778h0c0-.616.754-1.118,1.676-1.118H285.18c.922,0,1.676.5,1.676,1.118h0c0,.614-.754,1.118-1.676,1.118h-.391a.97.97,0,0,1,.478.778c0,.531-.547.967-1.28,1.086h3.376c.919,0,1.673.5,1.673,1.118s-.754,1.116-1.673,1.116H275.623c-.919,0-1.674-.5-1.674-1.116,0-.531.547-.967,1.28-1.086h-3.376c-.919,0-1.673-.5-1.673-1.118S270.929,208.617,271.853,208.617Z" transform="translate(-217.115 -166.455)" fill="#6c63ff" opacity="0.1"/>
    <path id="Path_33" data-name="Path 33" d="M750.373,248.687h.393a.969.969,0,0,1-.481-.781h0c0-.614.754-1.116,1.676-1.116h11.727c.922,0,1.676.5,1.676,1.116h0c0,.616-.754,1.118-1.676,1.118h-.39a.972.972,0,0,1,.478.781c0,.531-.547.964-1.28,1.084h3.376c.919,0,1.673.5,1.673,1.118s-.754,1.118-1.673,1.118H754.148c-.919,0-1.673-.5-1.673-1.118,0-.531.547-.967,1.28-1.084h-3.381c-.919,0-1.674-.5-1.674-1.118S749.46,248.687,750.373,248.687Z" transform="translate(-568.528 -195.881)" fill="#6c63ff" opacity="0.1"/>
    <path id="Path_34" data-name="Path 34" d="M204.123,420.149h.393a.972.972,0,0,1-.478-.781h0c0-.614.752-1.118,1.673-1.118h11.727c.922,0,1.676.5,1.676,1.118h0c0,.616-.754,1.118-1.676,1.118h-.39a.972.972,0,0,1,.478.781c0,.531-.547.964-1.28,1.084h3.376c.922,0,1.673.5,1.673,1.118s-.752,1.118-1.673,1.118h-11.73c-.919,0-1.673-.5-1.673-1.118,0-.531.55-.967,1.28-1.086h-3.376c-.919,0-1.673-.5-1.673-1.116S203.2,420.149,204.123,420.149Z" transform="translate(-167.376 -321.797)" fill="#6c63ff" opacity="0.1"/>
    <path id="Path_35" data-name="Path 35" d="M667.095,713.44,665.124,715c-.385.305-.776.608-1.163.911-.282.22-.56.441-.847.659-1.437,1.108-2.893,2.191-4.378,3.227-.353.247-.712.494-1.062.736a56.017,56.017,0,0,1-9.44,5.2l-.042.019V713.44Z" transform="translate(-494.716 -538.577)" fill="#65617d"/>
    <path id="Path_36" data-name="Path 36" d="M495.255,352.325l.3-9.177c-.178-.138-.359-.266-.531-.393a48.916,48.916,0,0,0-.468-8.184c-1.2-9.177-9-9.377-11.2-7.483a5.312,5.312,0,0,1-.948.653c.2-1.31.446-2.622.624-3.918.962-6.991-.531-14.856-5.955-19.375-2.271-1.889-5.047-3.049-7.541-4.63-4.468-2.818-8-6.981-12.516-9.725s-10.864-3.772-14.806-.244c-1.527,1.365-2.513,3.259-4.08,4.577-2.922,2.454-7.477,2.616-10.027,5.358h0c-.127.138-.25.279-.367.428-2.125,2.725-1.543,6.59-.866,9.972.815,4.069.478,7.331,3.968,8.5.013.162.024.324.043.483a17.241,17.241,0,0,0,7.586,12.41l-.566.2c-1.509.531-2.866,1.047-3.735,1.4-3.187,1.3-9.9,2.991-9.9,2.991s-.159,1.913-.13,4.733c-2.237,2.43-5.969,6.7-7.066,9.233-1.594,3.692-10.6,14.267-13,15.863s-5,3.49-5,3.49-3.8,2.1-5.6,2.3a30.147,30.147,0,0,1-5.1-.6s-15.393-18.859-14.394-4.388,13.295,14.963,13.295,14.963l12.4-.2s6.7.9,9.7-1.594c2.561-2.125,15.831-13.783,20.095-19.072.1.109.2.215.3.319,0,0,1.7-2.194,1.9,0s-1.1,3.188-.4,3.984,2.8,3.591,2.9,4.688-2.8,5.578,2.1,8.978c.077.053.159.1.25.154.874,1.99,3.652,3.937,3.652,3.937l14.995-.2,28.292,2.194s.842-.741,1.982-1.952c1.522,1.4,3.634,2.6,6.014,1.859,0,0,3.4-4.088,3.5-6.781,0,0-2.2-5.687-3.188-7.382s.7-5.387.7-5.387,1.2-3.591,1.9-3.591.2-2.391.2-2.391a2.906,2.906,0,0,1-.3-2.693A25.779,25.779,0,0,0,495.255,352.325Z" transform="translate(-293.317 -225.848)" fill="url(#linear-gradient)"/>
    <path id="Path_37" data-name="Path 37" d="M682.557,451.906l-1.063,1.243h0l-4.292,5-5.607.34-8.975.553s-12.1-14.583-9.828-17.757a5.81,5.81,0,0,0,.8-4.083c-.021-.2-.05-.393-.085-.587a16.97,16.97,0,0,0-1.413-4.356l.3-.135.191-.088,10.583-4.829,2.619-1.2a7.07,7.07,0,0,0,.717,2.067c.05.1.106.2.165.3,3.61,5.977,15.186,2.2,15.186,2.2Z" transform="translate(-497.58 -327.496)" fill="#ee8e9e"/>
    <path id="Path_38" data-name="Path 38" d="M774.756,451.16a17.453,17.453,0,0,1-.669,5.18l-14.979,2.282-.56-3.889-2.218-15.356,2.083-2.083a5.559,5.559,0,0,0,4.763-1.19c2.181-1.886,9.918-1.687,11.108,7.438a50.5,50.5,0,0,1,.473,7.618Z" transform="translate(-574.131 -334.211)" fill="#ee8e9e"/>
    <path id="Path_39" data-name="Path 39" d="M789.034,611.847s3.371-4.067,3.472-6.744l-3.373-5.655-2.975-3.187L780.6,606.986S784.271,613.334,789.034,611.847Z" transform="translate(-591.954 -452.523)" fill="#dfe5ee"/>
    <path id="Path_40" data-name="Path 40" d="M789.034,611.847s3.371-4.067,3.472-6.744l-3.373-5.655-2.975-3.187L780.6,606.986S784.271,613.334,789.034,611.847Z" transform="translate(-591.954 -452.523)" opacity="0.1"/>
    <path id="Path_41" data-name="Path 41" d="M240.821,696.684c-.282.22-.56.441-.847.659-1.437,1.108-2.893,2.191-4.377,3.227-.353.247-.712.494-1.063.736H149.8l-25.07-.9-20.161-.17-5.047-.266L74.34,698.645a63.215,63.215,0,0,1-2.075-9.26c-.1-.707-.2-1.416-.266-2.125l27.511,1.525,5.047.284,45.231,2.523,5.06.282,65.169,3.639,5.015.282h.042Z" transform="translate(-71.577 -519.351)" fill="#d48a9b"/>
    <path id="Path_42" data-name="Path 42" d="M273.953,630.17a71.026,71.026,0,0,0-15.937,6.556c-.4.231-.8.468-1.2.709s-.8.483-1.182.733-.773.5-1.155.749l-.59.4-.576.393c-.568.39-1.129.8-1.689,1.19l-.021.016q-.554.4-1.1.8c-2.069,1.533-4.093,3.137-6.109,4.747q-.637.51-1.278,1.017l-1.966,1.559c-.385.305-.776.608-1.163.911-.282.221-.56.441-.847.659l-14.875-.709h-.042l-5.015-.234-65.2-3.089-5.06-.242-45.231-2.149-5.047-.242-27.256-1.283c-.1-.707-.2-1.416-.266-2.125q-.207-1.825-.308-3.666l27.827-9.828,5.047-1.788,4.585-1.62,8.354.436,19.308.991h0l12.994.683,5.06.266,3.233.17h0l.773.043h0l27.205,1.421h0l.287.019h0l12.139.632h.218l1.214.061h0l4.138.218,5.174.266h0l1.705.09h0l.321.019,2.412.125h0l.688.034h0l2.3.122h0l.916.05h.22l2.154.114,3.336.175h.016l1.036.053h.112l.619.034,1.519.08h0l1.328.069h.013l1.49.077h.024l1.129.061h0l.866.045,3.073.162h0l.553.029h.191l.266.016h0l.9.048h0l.4.021h0l3.134.162h.287l4.627-.04h.032l17.592-.143h1.74l5.663-.045h.845Z" transform="translate(-70.725 -472.623)" fill="#efc6cd"/>
    <path id="Path_43" data-name="Path 43" d="M387.313,641.395l1.636,8.7,44.487-.669s3.347.967,3.273-1.711c0,0,6.771-6.4,41.066,1.041L464.607,638.42l-35.992,1.934-41.735-1.116Z" transform="translate(-302.816 -483.484)" fill="#6c63ff"/>
    <path id="Path_44" data-name="Path 44" d="M391.59,640.453l1.562,9.448s38.25-1.116,44.264-.074l-4.545-8.63S409.743,639.04,391.59,640.453Z" transform="translate(-306.275 -484.624)" fill="#fff"/>
    <path id="Path_45" data-name="Path 45" d="M391.59,640.453l1.562,9.448s38.25-1.116,44.264-.074l-4.545-8.63S409.743,639.04,391.59,640.453Z" transform="translate(-306.275 -484.624)" opacity="0.1"/>
    <path id="Path_46" data-name="Path 46" d="M393.74,640.416l1.541,8.787s37.764-1.036,43.714-.069l-4.481-8.025S411.664,639.1,393.74,640.416Z" transform="translate(-307.854 -484.622)" fill="#fff"/>
    <path id="Path_47" data-name="Path 47" d="M396.35,641.5l1.5,8.218s36.935-.97,42.766-.064l-4.383-7.509S413.884,640.261,396.35,641.5Z" transform="translate(-309.771 -485.437)" opacity="0.1"/>
    <path id="Path_48" data-name="Path 48" d="M397.47,640.388l1.509,8.234s36.935-.97,42.766-.064l-4.393-7.517S415,639.158,397.47,640.388Z" transform="translate(-310.593 -484.623)" fill="#fff"/>
    <path id="Path_49" data-name="Path 49" d="M284.394,557.41s1.934,2.526-.89,6.343-5.156,7.036-4.213,9.416c0,0,4.25-7.087,7.73-7.172S288.211,561.671,284.394,557.41Z" transform="translate(-223.65 -423.992)" fill="#6c63ff"/>
    <path id="Path_50" data-name="Path 50" d="M284.7,557.41a3.073,3.073,0,0,1,.4.8c3.384,3.984,5.188,7.7,1.934,7.783-3.031.085-6.665,5.5-7.536,6.874q.045.154.1.311s4.25-7.087,7.73-7.172S288.513,561.671,284.7,557.41Z" transform="translate(-223.952 -423.992)" opacity="0.1"/>
    <path id="Path_51" data-name="Path 51" d="M311.386,567.963c0,.887-.1,1.61-.223,1.61s-.223-.723-.223-1.61.125-.473.247-.473S311.386,567.073,311.386,567.963Z" transform="translate(-247.048 -431.323)" fill="#ffd037"/>
    <path id="Path_52" data-name="Path 52" d="M313.048,571.836c-.781.428-1.461.685-1.519.576s.531-.531,1.307-.967.473-.117.531,0S313.829,571.411,313.048,571.836Z" transform="translate(-247.478 -434.136)" fill="#ffd037"/>
    <path id="Path_53" data-name="Path 53" d="M248.667,557.41s-1.934,2.526.892,6.343,5.153,7.036,4.213,9.416c0,0-4.263-7.087-7.732-7.172S244.85,561.671,248.667,557.41Z" transform="translate(-198.131 -423.992)" fill="#6c63ff"/>
    <path id="Path_54" data-name="Path 54" d="M248.667,557.41a3.187,3.187,0,0,0-.4.8c-3.384,3.984-5.188,7.7-1.934,7.783,3.031.085,6.667,5.5,7.538,6.874a3.2,3.2,0,0,1-.1.311s-4.263-7.087-7.732-7.172S244.85,561.671,248.667,557.41Z" transform="translate(-198.131 -423.992)" opacity="0.1"/>
    <path id="Path_55" data-name="Path 55" d="M247.13,567.963c0,.887.1,1.61.223,1.61s.223-.723.223-1.61-.125-.473-.247-.473S247.13,567.073,247.13,567.963Z" transform="translate(-200.188 -431.323)" fill="#ffd037"/>
    <path id="Path_56" data-name="Path 56" d="M241.18,571.836c.781.428,1.464.685,1.522.576s-.531-.531-1.307-.967-.473-.117-.531,0S240.4,571.411,241.18,571.836Z" transform="translate(-195.47 -434.136)" fill="#ffd037"/>
    <path id="Path_57" data-name="Path 57" d="M261.5,600.649l-.1.8-.135,1.113-.056.465-.135,1.116-.058.465-.138,1.116L259.337,618.4c-.138,1.132-1.987,2.013-4.218,2.013h-8.027c-2.231,0-4.077-.882-4.215-2.013l-1.549-12.676-.135-1.116-.056-.465L241,603.024l-.056-.465-.135-1.113-.1-.8c-.077-.64.922-1.179,2.186-1.179h16.432C260.588,599.47,261.589,600.009,261.5,600.649Z" transform="translate(-195.469 -454.88)" fill="#65617d"/>
    <path id="Path_58" data-name="Path 58" d="M191.257,551.59l-.135,1.116H170.785l-.135-1.116Z" transform="translate(-125.312 -405.032)" fill="#9d9cb5"/>
    <path id="Path_59" data-name="Path 59" d="M191.595,557.54l-.135,1.116H171.508l-.138-1.116Z" transform="translate(-125.841 -409.401)" fill="#9d9cb5"/>
    <path id="Path_60" data-name="Path 60" d="M191.937,563.49,191.8,564.6H172.235l-.135-1.113Z" transform="translate(-126.377 -413.771)" fill="#9d9cb5"/>
    <path id="Path_61" data-name="Path 61" d="M397.564,595.014s-5.158-4.959-4.959,1.488S397.564,595.014,397.564,595.014Z" transform="translate(-307.016 -450.27)" fill="#ee8e9e"/>
    <path id="Path_62" data-name="Path 62" d="M429.783,503.239a7.525,7.525,0,0,1-1.535,2.367c-4.473,5.387-17.2,16.583-19.693,18.66-2.975,2.481-9.621,1.594-9.621,1.594l-12.3.2s-12.2-.5-13.194-14.875,14.283,4.364,14.283,4.364a29.823,29.823,0,0,0,5.06.595c1.785-.2,5.554-2.279,5.554-2.279s2.579-1.886,4.959-3.472,11.308-12.1,12.9-15.773c1.007-2.329,4.25-6.139,6.489-8.609,1.286-1.421,2.239-2.391,2.239-2.391S430.477,500.163,429.783,503.239Z" transform="translate(-292.913 -369.803)" fill="#ee8e9e"/>
    <path id="Path_63" data-name="Path 63" d="M566.05,503.21a7.525,7.525,0,0,1-1.535,2.367c-4.516-4.6-5.459-13.773-5.565-19.606,1.286-1.421,2.239-2.391,2.239-2.391S566.743,500.134,566.05,503.21Z" transform="translate(-429.18 -369.774)" opacity="0.1"/>
    <path id="Path_64" data-name="Path 64" d="M681.492,469.8h0l-4.29,5-5.607.34-8.975.552s-12.1-14.583-9.828-17.757a5.81,5.81,0,0,0,.8-4.083c-.021-.2-.05-.393-.085-.587a16.969,16.969,0,0,0-1.413-4.356l.3-.135.191-.088a19.041,19.041,0,0,1,.972,4.067c.029.189.056.385.082.587.093.717.178,1.514.266,2.391.691,8.027,5.74,11.047,8.019,12.009a23.14,23.14,0,0,1,2.146,1.039,11.451,11.451,0,0,0,7.2,1.3c5.626-.738,10.213-4.826,10.213-4.826l.024,4.024Z" transform="translate(-497.58 -344.151)" opacity="0.1"/>
    <path id="Path_65" data-name="Path 65" d="M614.694,497.516s-36.9-.1-41.762-3.472-1.982-7.836-2.083-8.928-2.181-3.867-2.874-4.664.595-1.785.4-3.966-1.883,0-1.883,0c-6.946-7.044-5.459-24.9-5.459-24.9s6.641-1.684,9.828-2.978c.863-.351,2.207-.85,3.719-1.389l.561-.2c3.9-1.395,8.529-2.97,8.529-2.97s.89-.63,1.785,1.254a16.554,16.554,0,0,1,1.15,4.489c.029.189.056.385.082.587.093.717.178,1.514.266,2.391.691,8.027,5.74,11.047,8.019,12.009a23.117,23.117,0,0,1,2.146,1.039,11.451,11.451,0,0,0,7.2,1.3c5.626-.738,10.213-4.826,10.213-4.826l.024,4.024.069,12.091Z" transform="translate(-430.609 -340.67)" fill="#dfe5ee"/>
    <path id="Path_66" data-name="Path 66" d="M646.348,582.83l-.6,3.769s-14.681,3.668-20.432,4.76-18.153-.3-19.045,2.083,3.769,5.655,3.769,5.655l14.875-.2,28.071,2.183s10.713-9.424,7.241-15.972S646.348,582.83,646.348,582.83Z" transform="translate(-463.852 -441.656)" fill="#ee8e9e"/>
    <path id="Path_67" data-name="Path 67" d="M628.022,474.58s-6.747,5.554-5.456,8.234S628.022,474.58,628.022,474.58Z" transform="translate(-475.778 -363.164)" opacity="0.1"/>
    <path id="Path_68" data-name="Path 68" d="M594.32,512.29s-6.845,11.8-6.447,12.7,2.282,4.067,2.181,1.687S594.32,512.29,594.32,512.29Z" transform="translate(-450.409 -390.857)" opacity="0.1"/>
    <path id="Path_69" data-name="Path 69" d="M612.984,520.14s-1.594,7.339-3.174,10.415S612.984,520.14,612.984,520.14Z" transform="translate(-466.294 -396.622)" opacity="0.1"/>
    <path id="Path_70" data-name="Path 70" d="M637.469,428.4a17.159,17.159,0,0,1-13.042,8.824H624.4a17.13,17.13,0,0,1-12.075-3.161c3.984-1.44,9.09-3.172,9.09-3.172s.89-.63,1.785,1.254l13.393-6.109a7.1,7.1,0,0,0,.882,2.364Z" transform="translate(-468.374 -327.518)" opacity="0.1"/>
    <path id="Path_71" data-name="Path 71" d="M620,354.349a17.083,17.083,0,0,1-2.258,8.516,17.284,17.284,0,0,1-2.558,3.405,17.088,17.088,0,0,1-10.4,5.143h-.034a16.756,16.756,0,0,1-1.907.109A17.16,17.16,0,0,1,585.789,356.3a16.641,16.641,0,0,1-.109-1.936,17.159,17.159,0,0,1,34.319,0Z" transform="translate(-448.81 -262.276)" fill="#ee8e9e"/>
    <path id="Path_72" data-name="Path 72" d="M753.449,500.841l1.594-2.391s8.729-10.415,17.266-3.769l-.3,9.127a24.188,24.188,0,0,1-.993,4.25,2.9,2.9,0,0,0,.3,2.68s.5,2.391-.2,2.391-1.886,3.57-1.886,3.57-1.687,3.671-.693,5.358,3.174,7.339,3.174,7.339-3.472-2.083-4.465-5.554c0,0-8.431-6.548-14.979-2.391Z" transform="translate(-571.149 -376.298)" opacity="0.1"/>
    <path id="Path_73" data-name="Path 73" d="M780.888,490.34a17.452,17.452,0,0,1-.669,5.18L765.24,497.8l-.56-3.889C766.64,491.868,773.77,485.365,780.888,490.34Z" transform="translate(-580.263 -373.391)" opacity="0.1"/>
    <path id="Path_74" data-name="Path 74" d="M753.449,498.841l1.594-2.391s8.729-10.415,17.266-3.769l-.3,9.127a24.188,24.188,0,0,1-.993,4.25,2.9,2.9,0,0,0,.3,2.68s.5,2.391-.2,2.391-1.886,3.57-1.886,3.57-1.687,3.671-.693,5.358,3.174,7.339,3.174,7.339-3.472-2.083-4.465-5.554c0,0-8.431-6.548-14.979-2.391Z" transform="translate(-571.149 -374.829)" fill="#dfe5ee"/>
    <path id="Path_75" data-name="Path 75" d="M771.82,496.61s-14.381,8.829-13.688,16.572C758.133,513.182,766.168,498.99,771.82,496.61Z" transform="translate(-575.437 -379.342)" opacity="0.1"/>
    <path id="Path_76" data-name="Path 76" d="M632.639,387.907,632.708,400c-2.72.122-5.283-.231-7.31-1.992a8.772,8.772,0,0,1-2.656-4.755,16.844,16.844,0,0,1-.345-4.5.243.243,0,0,1,0-.045c.167-3.339.935-6.678.531-10s-2.415-6.819-5.7-7.517a3.44,3.44,0,0,1-1.838-.667,2.666,2.666,0,0,1-.43-2.093l.1-1.24c.024-.319.035-.635.035-.951a12.174,12.174,0,0,0-9.828-11.937l-.106-.019a6.713,6.713,0,0,0-2.81-.157c-1.758.406-2.9,2.112-4.516,2.922-3.108,1.551-8.29-.146-11.544-.68-.212-.035-.414-.074-.608-.12a16.649,16.649,0,0,1-.109-1.936,17.159,17.159,0,1,1,32.061,8.516c.05.1.106.2.165.3,3.61,5.977,15.186,2.2,15.186,2.2l.7,21.327Z" transform="translate(-448.729 -262.251)" opacity="0.1"/>
    <path id="Path_77" data-name="Path 77" d="M586.186,322.79c1.61-.813,2.747-2.518,4.516-2.922a6.775,6.775,0,0,1,2.813.154l.106.021a12.184,12.184,0,0,1,9.783,12.891l-.1,1.24a2.627,2.627,0,0,0,.433,2.09,3.357,3.357,0,0,0,1.836.664c3.283.7,5.294,4.184,5.7,7.52s-.377,6.686-.531,10.038.462,7.052,3,9.254c3.984,3.453,10.041,1.487,15.313,1.171-2.332,0-4.08-2.407-4.207-4.733s.908-4.542,1.9-6.641,1.984-4.356,1.764-6.678c-.3-3.187-2.816-5.74-3.777-8.808-1.121-3.57-.04-7.4.467-11.114.954-6.949-.531-14.771-5.91-19.263-2.253-1.878-5.007-3.033-7.483-4.606-4.436-2.813-7.934-6.938-12.418-9.674s-10.779-3.751-14.692-.244c-1.514,1.357-2.492,3.241-4.048,4.55-3.041,2.563-7.876,2.611-10.314,5.756-2.1,2.707-1.53,6.55-.858,9.91.9,4.481.391,7.969,5.18,8.766C577.9,322.646,583.076,324.344,586.186,322.79Z" transform="translate(-436.46 -228.281)" fill="#603556"/>
    <path id="Path_78" data-name="Path 78" d="M625.552,396.216c-3.838.47-7.642.712-10.436-1.711-2.534-2.2-3.158-5.9-3-9.254s.938-6.707.531-10.041-2.415-6.816-5.7-7.517a3.407,3.407,0,0,1-1.836-.664,2.648,2.648,0,0,1-.433-2.093l.1-1.24A12.182,12.182,0,0,0,595,350.807l-.106-.021a6.775,6.775,0,0,0-2.813-.154c-1.759.406-2.9,2.125-4.516,2.922-3.11,1.554-8.288-.143-11.547-.677-4.781-.784-4.282-4.277-5.18-8.766-.5-2.508-.946-5.286-.266-7.661a4.181,4.181,0,0,0-.367.428c-2.1,2.707-1.53,6.55-.858,9.91.9,4.481.391,7.969,5.18,8.766,3.257.531,8.436,2.231,11.547.677,1.61-.813,2.747-2.518,4.516-2.922a6.775,6.775,0,0,1,2.813.154l.106.021a12.184,12.184,0,0,1,9.783,12.891l-.1,1.24a2.627,2.627,0,0,0,.433,2.09,3.357,3.357,0,0,0,1.835.664c3.283.7,5.294,4.184,5.7,7.52s-.375,6.686-.531,10.038.462,7.052,3,9.254c3.984,3.453,10.041,1.487,15.313,1.171A4.04,4.04,0,0,1,625.552,396.216Z" transform="translate(-436.364 -261.725)" opacity="0.1"/>
    <path id="Path_79" data-name="Path 79" d="M370.11,577.646l16.376-6.109a1.559,1.559,0,0,1,2.005.914h0a1.559,1.559,0,0,1-.914,2.005L371.2,580.565l-3.512-.351Z" transform="translate(-288.724 -434.294)" fill="#5c5c8e"/>
    <path id="Path_80" data-name="Path 80" d="M387.968,572.628h0a1.559,1.559,0,0,1-.916,2.006l-16.386,6.131-2.635-.266-.38.4,3.512.351,16.376-6.109a1.559,1.559,0,0,0,.914-2.005h0a1.559,1.559,0,0,0-.638-.778,1.812,1.812,0,0,1,.154.268Z" transform="translate(-288.694 -434.971)" fill="#fff" opacity="0.1"/>
    <path id="Path_81" data-name="Path 81" d="M299.68,539.52l1.089,2.919-2.879-.289-.63-.064.861-.914Z" transform="translate(-218.291 -396.168)" fill="#efc8c4"/>
    <path id="Path_82" data-name="Path 82" d="M368.573,601a.7.7,0,0,1,.17.183.266.266,0,0,1,0,.284.567.567,0,0,1-.157.114.531.531,0,0,0-.234.393l-.632-.061Z" transform="translate(-288.746 -456.004)" fill="#727a9c"/>
    <path id="Path_83" data-name="Path 83" d="M569.533,638.687s14.184-2.978,37.984.8l-9.324-6.843-16.963-3.472-12,3.188Z" transform="translate(-436.73 -476.691)" fill="#fff"/>
    <path id="Path_84" data-name="Path 84" d="M569.533,638.687s14.184-2.978,37.984.8l-9.324-6.843-16.963-3.472-12,3.188Z" transform="translate(-436.73 -476.691)" opacity="0.1"/>
    <path id="Path_85" data-name="Path 85" d="M551.6,644.164s7.143-19.322,43.828.061l-13.167-8.473s-31.543-8.715-35.187,1.328Z" transform="translate(-420.456 -478.948)" fill="#fff"/>
    <path id="Path_86" data-name="Path 86" d="M551.545,640.27s7.143-20.658,43.828.372l-13.167-9.191s-31.554-10.423-35.206.486Z" transform="translate(-420.404 -475.068)" opacity="0.1"/>
    <path id="Path_87" data-name="Path 87" d="M551.6,640.06s7.143-20.963,43.828.066l-13.167-9.191s-31.543-10.126-35.187.8Z" transform="translate(-420.456 -474.85)" fill="#fff"/>
    <path id="Path_88" data-name="Path 88" d="M551.567,637.71s7.143-23.3,43.828.359l-13.178-10.341s-31.543-10.625-35.187,1.636Z" transform="translate(-420.426 -472.495)" opacity="0.1"/>
    <path id="Path_89" data-name="Path 89" d="M551.567,636.875s7.143-23.582,43.828.074l-13.178-10.341s-31.543-10.625-35.187,1.636Z" transform="translate(-420.426 -471.672)" fill="#fff"/>
    <path id="Path_90" data-name="Path 90" d="M966.872,668.71s-8.806,9.432-.879,14.014a2.2,2.2,0,0,0,2.516.6s-.5-.444.5-1.3a5.937,5.937,0,0,0,.943-1.036,2.921,2.921,0,0,0,.547-1.769h0s1.153-3.743-2.51-8.6c0,0-.332-1.626-.614-1.8l-.669,2.266a3.9,3.9,0,0,1,2.314,1.708s-2.215-1.74-2.43-1.376c-.043.074-.3,1.219-.3,1.219s2.922.754,3.836,2.763c0,0-2.361-2.425-3.937-2.33l-.287,1.748s3.126.648,4.25,2.9c0,0-2.555-2.452-4.293-2.507l-.05,1.756s3.036.691,3.963,2.566c0,0-3.238-2.531-3.947-2.162a8.677,8.677,0,0,0,.266,2.04s2.168.531,2.608,1.684c0,0-2.343-1.464-2.545-1.24a9.135,9.135,0,0,0,1.506,2.978,6.608,6.608,0,0,1-1.827-2.863,3.645,3.645,0,0,0-.441,2.037s-.869-.962.295-2.545a8.392,8.392,0,0,1-.319-1.907,7.932,7.932,0,0,0-1.719,2.656s-.266-1.573,1.716-3.111v-1.769a11.28,11.28,0,0,0-2.3,2.842s-.026-1.647,2.34-3.286l.266-1.719a13.442,13.442,0,0,0-2.457,2.5,5.344,5.344,0,0,1,2.55-2.991l.311-1.126s-1.264,1.036-1.594,1.365-.454.266-.454.266a5.577,5.577,0,0,1,2.178-2.109A12.69,12.69,0,0,0,966.872,668.71Z" transform="translate(-725.673 -505.728)" fill="#6c63ff" opacity="0.1"/>
    <path id="Path_91" data-name="Path 91" d="M1105.34,90.91s-11.765,5.313-6.218,12.588a2.2,2.2,0,0,0,2.09,1.522s-.29-.6.964-1.007a5.825,5.825,0,0,0,1.27-.592,2.921,2.921,0,0,0,1.187-1.421h0s2.508-3.007,1-8.9c0,0,.322-1.628.13-1.9l-1.493,1.833a3.9,3.9,0,0,1,1.477,2.468s-1.371-2.46-1.71-2.2c-.069.05-.747,1.007-.747,1.007s2.391,1.822,2.473,4.03c0,0-1.243-3.15-2.736-3.671l-.938,1.5s2.635,1.8,2.81,4.311c0,0-1.413-3.246-2.994-3.968l-.725,1.594s2.537,1.809,2.656,3.9c0,0-2.011-3.586-2.807-3.517a8.249,8.249,0,0,0-.531,1.984s1.79,1.328,1.758,2.561c0,0-1.594-2.253-1.859-2.125a9.1,9.1,0,0,0,.242,3.328,6.594,6.594,0,0,1-.582-3.347,3.636,3.636,0,0,0-1.193,1.711s-.43-1.225,1.254-2.237a8.339,8.339,0,0,1,.441-1.881,7.929,7.929,0,0,0-2.606,1.777s.359-1.554,2.784-2.207l.691-1.626a11.29,11.29,0,0,0-3.219,1.732s.611-1.53,3.427-2.125l.906-1.482a13.568,13.568,0,0,0-3.233,1.36,5.368,5.368,0,0,1,3.509-1.774l.72-.919s-1.567.467-2.005.643-.531.072-.531.072a5.578,5.578,0,0,1,2.84-1.1A13.95,13.95,0,0,0,1105.34,90.91Z" transform="translate(-824.777 -81.407)" fill="#6c63ff" opacity="0.1"/>
    <path id="Path_92" data-name="Path 92" d="M674.647,103.29s-17.675,5.047-9.082,12.559a3.409,3.409,0,0,0,3.209,1.594s-.457-.616,1.434-.991a11.238,11.238,0,0,0,1.907-.563,3.4,3.4,0,0,0,1.758-1.405h0s3.719-2.975,1.278-8.973c0,0,.444-1.636.146-1.918l-2.21,1.812s2.125,1.092,2.3,2.534c0,0-2.144-2.521-2.656-2.274-.1.05-1.105,1-1.105,1s3.687,1.907,3.854,4.141c0,0-1.966-3.217-4.25-3.783l-1.381,1.493s4.038,1.894,4.37,4.433c0,0-2.226-3.318-4.638-4.091l-1.063,1.594s3.889,1.9,4.144,4.011c0,0-3.142-3.679-4.348-3.634a6.227,6.227,0,0,0-.757,1.995s2.747,1.4,2.733,2.635c0,0-2.481-2.322-2.89-2.2a6.33,6.33,0,0,0,.457,3.371,5.049,5.049,0,0,1-.972-3.4,3.994,3.994,0,0,0-1.758,1.695s-.685-1.246,1.838-2.223c0,0,.321-1.695.616-1.891a13,13,0,0,0-3.9,1.727s.5-1.562,4.154-2.157l1-1.626s-3.666.829-4.829,1.665c0,0,.885-1.53,5.135-2.061l1.328-1.474a26.137,26.137,0,0,0-4.861,1.288s1.288-1.288,5.265-1.7l1.062-.908s-2.361.43-3.02.6-.8.058-.8.058a10.464,10.464,0,0,1,4.25-1.041S674.8,103.4,674.647,103.29Z" transform="translate(-505.746 -90.498)" fill="#6c63ff" opacity="0.1"/>
    <path id="Path_93" data-name="Path 93" d="M892.322,803.77s8.9-9.347,1.017-14.006a2.2,2.2,0,0,0-2.51-.622s.5.449-.513,1.3a6,6,0,0,0-.954,1.025,2.9,2.9,0,0,0-.563,1.764h0s-1.193,3.732,2.425,8.625c0,0,.316,1.628.6,1.812l.693-2.26a3.9,3.9,0,0,1-2.3-1.729s2.2,1.758,2.414,1.4c.045-.074.313-1.214.313-1.214s-2.922-.8-3.809-2.8c0,0,2.338,2.449,3.915,2.367l.3-1.745s-3.118-.677-4.226-2.922c0,0,2.531,2.476,4.269,2.55l.066-1.759s-3.031-.733-3.95-2.619c0,0,3.214,2.566,3.926,2.2a7.91,7.91,0,0,0-.266-2.04s-2.162-.569-2.593-1.711c0,0,2.33,1.487,2.531,1.264a9.111,9.111,0,0,0-1.477-2.991,6.605,6.605,0,0,1,1.8,2.879,3.631,3.631,0,0,0,.46-2.032s.861.972-.319,2.542a8.4,8.4,0,0,1,.3,1.91,7.958,7.958,0,0,0,1.743-2.627s.266,1.575-1.745,3.092l-.027,1.769a11.273,11.273,0,0,0,2.327-2.821s0,1.65-2.372,3.265l-.266,1.716a13.476,13.476,0,0,0,2.481-2.478,5.352,5.352,0,0,1-2.579,2.964l-.321,1.124s1.275-1.023,1.615-1.349.457-.266.457-.266a5.561,5.561,0,0,1-2.2,2.088A13.613,13.613,0,0,0,892.322,803.77Z" transform="translate(-671.275 -594.038)" fill="#6c63ff" opacity="0.1"/>
    <path id="Path_94" data-name="Path 94" d="M575.85,55.661s1.517,12.814,10.134,9.722a2.2,2.2,0,0,0,2.08-1.538s-.664.1-.669-1.222a5.947,5.947,0,0,0-.183-1.389,2.9,2.9,0,0,0-1-1.559h0s-2.114-3.3-8.2-3.623c0,0-1.456-.8-1.774-.7l1.3,1.974a3.89,3.89,0,0,1,2.8-.664s-2.757.568-2.616.967c.027.082.733,1.015.733,1.015s2.484-1.753,4.609-1.155c0,0-3.376.234-4.322,1.5l1.134,1.349s2.513-1.971,4.959-1.384c0,0-3.522.372-4.688,1.66l1.323,1.174s2.486-1.875,4.516-1.371c0,0-4.027.839-4.2,1.618a8.5,8.5,0,0,0,1.735,1.11s1.817-1.3,2.97-.906c0,0-2.63.845-2.59,1.142a9.129,9.129,0,0,0,3.246.77,6.74,6.74,0,0,1-3.365-.452,3.643,3.643,0,0,0,1.272,1.652s-1.3.04-1.756-1.859a8.465,8.465,0,0,1-1.66-.985,7.95,7.95,0,0,0,.911,3.018s-1.376-.8-1.27-3.318l-1.328-1.15a11.335,11.335,0,0,0,.683,3.594s-1.275-1.044-1-3.91l-1.139-1.31a13.493,13.493,0,0,0,.321,3.49,5.347,5.347,0,0,1-.635-3.878l-.661-.964s-.024,1.634,0,2.106-.09.518-.09.518a5.578,5.578,0,0,1-.207-3.036A13.566,13.566,0,0,0,575.85,55.661Z" transform="translate(-441.591 -55.29)" fill="#6c63ff" opacity="0.1"/>
    <path id="Path_95" data-name="Path 95" d="M782.394,733.533s-12.437-3.453-12.835,5.695a2.2,2.2,0,0,0,.635,2.507s.162-.648,1.384-.157a5.947,5.947,0,0,0,1.355.359,2.9,2.9,0,0,0,1.822-.335h0s3.852-.707,6.465-6.2c0,0,1.288-1.044,1.328-1.379l-2.319.454a3.9,3.9,0,0,1-.446,2.842s.531-2.768.1-2.789c-.088,0-1.219.295-1.219.295s.68,2.938-.677,4.678c0,0,1.063-3.214.247-4.569l-1.684.555s.871,3.071-.6,5.111c0,0,.993-3.4.239-4.965l-1.578.768s.8,3.012-.444,4.7c0,0,.749-4.043.093-4.5a8.642,8.642,0,0,0-1.681,1.185s.531,2.176-.287,3.092c0,0,.213-2.755-.077-2.829a9.093,9.093,0,0,0-1.944,2.712,6.6,6.6,0,0,1,1.695-2.943,3.648,3.648,0,0,0-2.011.55s.452-1.214,2.391-.914a8.326,8.326,0,0,1,1.543-1.163,7.893,7.893,0,0,0-3.14-.3s1.27-.967,3.551.085l1.573-.8a11.326,11.326,0,0,0-3.583-.728s1.448-.8,3.984.555l1.642-.56a13.513,13.513,0,0,0-3.352-1.023,5.355,5.355,0,0,1,3.83.882l1.142-.247s-1.5-.643-1.952-.8-.446-.266-.446-.266a5.579,5.579,0,0,1,2.877.956A13.755,13.755,0,0,0,782.394,733.533Z" transform="translate(-583.732 -552.864)" fill="#6c63ff" opacity="0.1"/>
  </g>
</svg>
