<svg xmlns="http://www.w3.org/2000/svg" width="151.727" height="122.883" viewBox="0 0 151.727 122.883">
  <g id="undraw_Google_docs_re_evm3" transform="translate(-2.499 -0.177)">
    <path id="Path_96" data-name="Path 96" d="M429.085,291.383h-75.43a9.659,9.659,0,0,1-9.648-9.648V193.148a9.659,9.659,0,0,1,9.648-9.648H423.83l14.9,11.878v86.356A9.659,9.659,0,0,1,429.085,291.383Z" transform="translate(-317.988 -168.323)" fill="#e6e6e6"/>
    <path id="Path_97" data-name="Path 97" d="M364.732,197.354a6.878,6.878,0,0,0-6.871,6.871v88.587a6.878,6.878,0,0,0,6.871,6.871h75.43a6.878,6.878,0,0,0,6.871-6.871V207.793l-13.1-10.439Z" transform="translate(-329.065 -179.399)" fill="#fff"/>
    <path id="Path_98" data-name="Path 98" d="M481.751,313.025H431.17a1.607,1.607,0,1,1,0-3.213h50.581a1.607,1.607,0,0,1,0,3.213Z" transform="translate(-386.392 -269.312)" fill="#ccc"/>
    <path id="Path_99" data-name="Path 99" d="M488.378,340.072H431.17a1.607,1.607,0,1,1,0-3.213h57.208a1.607,1.607,0,0,1,0,3.213Z" transform="translate(-386.392 -290.936)" fill="#ccc"/>
    <path id="Path_100" data-name="Path 100" d="M481.751,434.238H431.17a1.607,1.607,0,1,1,0-3.213h50.581a1.607,1.607,0,0,1,0,3.213Z" transform="translate(-386.392 -366.224)" fill="#6c63ff"/>
    <path id="Path_101" data-name="Path 101" d="M488.378,461.286H431.17a1.607,1.607,0,1,1,0-3.213h57.208a1.607,1.607,0,1,1,0,3.213Z" transform="translate(-386.392 -387.849)" fill="#ccc"/>
    <path id="Path_102" data-name="Path 102" d="M481.751,555.452H431.17a1.607,1.607,0,1,1,0-3.213h50.581a1.607,1.607,0,1,1,0,3.213Z" transform="translate(-386.392 -463.137)" fill="#ccc"/>
    <path id="Path_103" data-name="Path 103" d="M488.378,582.5H431.17a1.607,1.607,0,1,1,0-3.213h57.208a1.607,1.607,0,1,1,0,3.213Z" transform="translate(-386.392 -484.762)" fill="#ccc"/>
    <path id="Path_104" data-name="Path 104" d="M755.69,196.656H744.016a3.213,3.213,0,0,1-3.213-3.213V184.82a.2.2,0,0,1,.326-.157L755.815,196.3a.2.2,0,0,1-.125.358Z" transform="translate(-635.235 -169.217)" fill="#e6e6e6"/>
    <path id="Path_105" data-name="Path 105" d="M273.605,133.553A22.053,22.053,0,1,1,251.553,111.5,22.053,22.053,0,0,1,273.605,133.553Z" transform="translate(-226.437 -110.757)" fill="#fff"/>
    <path id="Path_106" data-name="Path 106" d="M304.761,198.14c-.241,14.1-21.22,14.1-21.459,0C283.543,184.036,304.522,184.038,304.761,198.14Z" transform="translate(-269.453 -171.571)" fill="#6c63ff"/>
    <path id="Path_107" data-name="Path 107" d="M334.651,234.937l-.011-.4c2.763.369,3.359-3.056.572-1.776l.636-4.649.4.054-.541,3.955C338.639,231.683,337.553,235.338,334.651,234.937Z" transform="translate(-310.499 -203.99)" fill="#2f2e41"/>
    <rect id="Rectangle_24" data-name="Rectangle 24" width="2.159" height="0.401" transform="translate(27.711 24.517)" fill="#2f2e41"/>
    <rect id="Rectangle_25" data-name="Rectangle 25" width="2.159" height="0.401" transform="translate(20.895 24.517)" fill="#2f2e41"/>
    <path id="Path_108" data-name="Path 108" d="M313.362,305.837c.421-2.841-2.9-2.279-4.665-2.307a1.908,1.908,0,0,0-1.86,2.306,10.433,10.433,0,0,0-3.707,2.045,22.148,22.148,0,0,0,14.12.156A10.38,10.38,0,0,0,313.362,305.837Z" transform="translate(-285.306 -264.267)" fill="#2f2e41"/>
    <path id="Path_109" data-name="Path 109" d="M283.093,161.065c1.988-1.149,4.4-.268,6.454.214,3.9,1.2,9.362-.3,9.836-4.944.493-4.317-5.413-6.723-7.3-2.427l.55-.072c-6.122-9.1-16.771-8.753-16.7,3.755-.023.386.579.385.6,0-.225-7.371,4.653-12.41,11.549-7.673a20.316,20.316,0,0,1,4.032,4.221c.718.8.874-2.661,4.311-1.753,3.783,1.465,2.548,6.882-.833,8.071-4.178,2.134-8.7-2-12.8.087a.3.3,0,0,0,.3.52Z" transform="translate(-263.559 -139.571)" fill="#2f2e41"/>
    <path id="Path_110" data-name="Path 110" d="M249.3,153.95a22.635,22.635,0,1,1,7.014-1.108A22.635,22.635,0,0,1,249.3,153.95Zm0-44.105A21.454,21.454,0,1,0,270.754,131.3,21.455,21.455,0,0,0,249.3,109.844Z" transform="translate(-224.187 -108.5)" fill="#ccc"/>
    <path id="Path_111" data-name="Path 111" d="M804.574,359.546A22.06,22.06,0,0,1,789.35,380.52c-.132.042-.264.084-.4.124-.573.176-1.155.327-1.746.455a21.673,21.673,0,0,1-3.25.451q-.713.048-1.433.048a22.014,22.014,0,0,1-7.291-1.235l-.2-.072a22.055,22.055,0,1,1,29.547-20.746Z" transform="translate(-650.952 -291.442)" fill="#fff"/>
    <circle id="Ellipse_1" data-name="Ellipse 1" cx="10.729" cy="10.729" r="10.729" transform="translate(120.312 61.256)" fill="#6c63ff"/>
    <path id="Path_112" data-name="Path 112" d="M859.953,468.475l.011-.4a3.316,3.316,0,0,1-1.9-.429,1.232,1.232,0,0,1-.477-.908.7.7,0,0,1,.231-.58,1.214,1.214,0,0,1,1.24-.011l.332.152-.636-4.649-.4.054.541,3.955a1.415,1.415,0,0,0-1.339.193,1.1,1.1,0,0,0-.373.9,1.63,1.63,0,0,0,.642,1.218A3.69,3.69,0,0,0,859.953,468.475Z" transform="translate(-728.286 -390.709)" fill="#2f2e41"/>
    <rect id="Rectangle_26" data-name="Rectangle 26" width="2.159" height="0.401" transform="translate(125.95 71.336)" fill="#2f2e41"/>
    <rect id="Rectangle_27" data-name="Rectangle 27" width="2.159" height="0.401" transform="translate(132.766 71.336)" fill="#2f2e41"/>
    <path id="Path_113" data-name="Path 113" d="M843.134,532.485a1.969,1.969,0,0,0,.044-.4,1.907,1.907,0,0,0-1.9-1.9h-2.807a1.906,1.906,0,0,0-1.9,1.9,1.849,1.849,0,0,0,.044.4,10.772,10.772,0,0,0-2.969,1.47c-.177.122-.351.255-.517.393l.2.072a22.013,22.013,0,0,0,7.291,1.235q.722,0,1.433-.048a21.687,21.687,0,0,0,3.25-.451c.591-.128,1.173-.279,1.746-.455A10.865,10.865,0,0,0,843.134,532.485Z" transform="translate(-709.045 -445.501)" fill="#2f2e41"/>
    <path id="Path_114" data-name="Path 114" d="M878.376,555.206a1.476,1.476,0,0,0-.726.255,21.673,21.673,0,0,0,3.25-.451Z" transform="translate(-744.647 -465.353)" fill="#2f2e41"/>
    <path id="Path_115" data-name="Path 115" d="M839.968,399.943l-18.639-6.819a.8.8,0,0,1-.478-1.029l.063-.3c1.456-3.979,6.281-6.483,10.26-5.028l5.736,2.1c3.979,1.456,5.708,6.168,4.253,10.147l-.166.451A.8.8,0,0,1,839.968,399.943Z" transform="translate(-699.196 -330.506)" fill="#2f2e41"/>
    <path id="Path_116" data-name="Path 116" d="M824.259,414.045c-25.979.959-28.25-2.306-20.334-7.439l1.679-3.09,19.246,7.017Z" transform="translate(-682.483 -344.23)" fill="#2f2e41"/>
    <ellipse id="Ellipse_2" data-name="Ellipse 2" cx="0.902" cy="1.704" rx="0.902" ry="1.704" transform="translate(133.158 57.755) rotate(-73.27)" fill="#2f2e41"/>
    <path id="Path_117" data-name="Path 117" d="M780.145,379.829a22.6,22.6,0,0,1-7.49-1.269l-.209-.075a22.654,22.654,0,1,1,14.714.235c-.142.045-.276.088-.413.129-.569.175-1.174.333-1.791.466a22.32,22.32,0,0,1-3.34.464C781.132,379.812,780.636,379.829,780.145,379.829Zm0-44.105a21.454,21.454,0,0,0-7.29,41.631l.2.071a21.394,21.394,0,0,0,7.091,1.2c.465,0,.933-.016,1.393-.047a21.146,21.146,0,0,0,3.163-.439c.584-.127,1.155-.275,1.7-.442.134-.04.262-.081.389-.121a21.454,21.454,0,0,0-6.641-41.854Z" transform="translate(-648.575 -289.071)" fill="#ccc"/>
  </g>
</svg>
