<svg xmlns="http://www.w3.org/2000/svg" width="214.195" height="99.53" viewBox="0 0 214.195 99.53">
  <g id="undraw_reviews_lp8w" transform="translate(0 -68.252)">
    <path id="Path_118" data-name="Path 118" d="M851.827,453.947a2.809,2.809,0,0,1,.433-.093l5.849-11.885-1.786-2.677,3.688-3.223,4.636,5.673-9.442,13.741a2.8,2.8,0,1,1-3.378-1.537Z" transform="translate(-676.014 -343.722)" fill="#a0616a"/>
    <path id="Path_119" data-name="Path 119" d="M864.546,422.376a1.207,1.207,0,0,1-.271.214l-5.984,3.469a1.2,1.2,0,0,1-1.689-.526l-2.911-6.149a1.2,1.2,0,0,1,.411-1.508l3.71-2.524a1.2,1.2,0,0,1,1.527.145l5.185,5.2a1.2,1.2,0,0,1,.023,1.674Z" transform="translate(-678.748 -328.386)" fill="#ccc"/>
    <path id="Path_120" data-name="Path 120" d="M705.2,482.247l-3.16.86-4.82-11.778,4.663-1.269Z" transform="translate(-510.995 -320.157)" fill="#a0616a"/>
    <path id="Path_121" data-name="Path 121" d="M3.976,0h6.315V3.976H0A3.976,3.976,0,0,1,3.976,0Z" transform="translate(184.702 163.705) rotate(-15.221)" fill="#2f2e41"/>
    <path id="Path_122" data-name="Path 122" d="M612.7,490.058h-3.274l-1.558-12.63H612.7Z" transform="translate(-445.512 -325.556)" fill="#a0616a"/>
    <path id="Path_123" data-name="Path 123" d="M594.033,521.212h6.315v3.976H590.057A3.976,3.976,0,0,1,594.033,521.212Z" transform="translate(-432.457 -357.646)" fill="#2f2e41"/>
    <circle id="Ellipse_3" data-name="Ellipse 3" cx="6.56" cy="6.56" r="6.56" transform="translate(164.08 69.654)" fill="#a0616a"/>
    <path id="Path_124" data-name="Path 124" d="M806.939,533.981h-4.475a1.205,1.205,0,0,1-1.2-1.128c-1.333-21.2-.553-36.4,2.455-47.85a1.252,1.252,0,0,1,.049-.147l.24-.6a1.2,1.2,0,0,1,1.116-.756h9.2a1.2,1.2,0,0,1,.913.42l1.25,1.458c.024.028.047.057.069.088,5.636,7.859,10.687,23.225,16.536,43.877a1.2,1.2,0,0,1-.79,1.473l-4.809,1.539a1.208,1.208,0,0,1-1.449-.623L813.565,505.85a.935.935,0,0,0-1.768.279l-3.667,26.812A1.207,1.207,0,0,1,806.939,533.981Z" transform="translate(-639.95 -378.484)" fill="#2f2e41"/>
    <path id="Path_125" data-name="Path 125" d="M823.308,424.27h-.038l-11.177-.353a1.2,1.2,0,0,1-1.156-1.056c-1.417-11.469,2.469-14.542,4.206-15.33a.924.924,0,0,0,.537-.733l.15-1.2a1.2,1.2,0,0,1,.237-.584A13.735,13.735,0,0,1,824.482,400a1.2,1.2,0,0,1,1.4,1.028l.225,1.726a.95.95,0,0,0,.191.452c5.678,7.423-.648,18.383-1.973,20.5h0A1.2,1.2,0,0,1,823.308,424.27Z" transform="translate(-647.276 -317.27)" fill="#ccc"/>
    <path id="Path_126" data-name="Path 126" d="M830.766,354.557a26.109,26.109,0,0,0-5.21-5.454,15.473,15.473,0,0,0-5.531-2.926,8.578,8.578,0,0,0-6.133.547c-1.855.986-3.773,2.945-3.785,5.045,0,.675.168,1.588.833,1.471l.192.026,4.809-.971,2.049,7.109a1.373,1.373,0,0,0,2.226,1.094c.074-.031.713-1.464.713-1.464a.267.267,0,0,1,.46-.077l.379.474a.534.534,0,0,0,.623.159l7.843-3.274c.361-.151.765-.348.87-.725A1.293,1.293,0,0,0,830.766,354.557Z" transform="translate(-646.891 -277.604)" fill="#2f2e41"/>
    <path id="Path_127" data-name="Path 127" d="M778.638,717.034H698.243a.267.267,0,0,1,0-.534h80.395a.267.267,0,0,1,0,.534Z" transform="translate(-564.709 -549.252)" fill="#3f3d56"/>
    <path id="Path_128" data-name="Path 128" d="M819.583,540.482a.856.856,0,0,1-.5-.167l-1.216-.883a.589.589,0,0,0-.695,0l-1.216.883a.858.858,0,0,1-1.321-.959l.464-1.429a.59.59,0,0,0-.215-.661l-1.216-.883a.858.858,0,0,1,.5-1.553h1.5a.59.59,0,0,0,.562-.408l.464-1.429a.858.858,0,0,1,1.633,0l.464,1.429a.59.59,0,0,0,.562.408h1.5a.858.858,0,0,1,.5,1.553l-1.216.883a.59.59,0,0,0-.215.661l.464,1.429a.845.845,0,0,1-.312.959A.856.856,0,0,1,819.583,540.482Z" transform="translate(-649.239 -414.322)" fill="#6c63ff"/>
    <path id="Path_129" data-name="Path 129" d="M841.685,471.138a2.869,2.869,0,0,0,.376-4.384l2.076-25.072-6.182.85-.118,24.36a2.885,2.885,0,0,0,3.847,4.246Z" transform="translate(-666.695 -347.835)" fill="#a0616a"/>
    <path id="Path_130" data-name="Path 130" d="M843.365,425.833a1.205,1.205,0,0,1-.342-.049l-6.636-1.952a1.2,1.2,0,0,1-.782-1.587l2.456-6.344a1.2,1.2,0,0,1,1.376-.74l4.384.953a1.2,1.2,0,0,1,.946,1.208l-.2,7.343A1.2,1.2,0,0,1,843.365,425.833Z" transform="translate(-665.519 -328.377)" fill="#ccc"/>
    <path id="Path_131" data-name="Path 131" d="M314.408,469.16H200.894a1.872,1.872,0,0,1-1.87-1.87V433.37a1.872,1.872,0,0,1,1.87-1.87H314.408a1.872,1.872,0,0,1,1.87,1.87V467.29a1.872,1.872,0,0,1-1.87,1.87ZM200.894,432.034a1.337,1.337,0,0,0-1.335,1.335V467.29a1.337,1.337,0,0,0,1.335,1.336H314.408a1.337,1.337,0,0,0,1.335-1.335V433.37a1.337,1.337,0,0,0-1.335-1.335Z" transform="translate(-199.024 -340.373)" fill="#3f3d56"/>
    <path id="Path_132" data-name="Path 132" d="M370.916,598.8a1.048,1.048,0,0,1-.618-.2l-1.489-1.082a.722.722,0,0,0-.851,0l-1.489,1.082a1.051,1.051,0,0,1-1.618-1.175l.569-1.751a.722.722,0,0,0-.263-.81l-1.489-1.082a1.051,1.051,0,0,1,.618-1.9h1.841a.722.722,0,0,0,.689-.5l.569-1.751a1.051,1.051,0,0,1,2,0l.569,1.751a.722.722,0,0,0,.689.5h1.841a1.051,1.051,0,0,1,.618,1.9l-1.489,1.082a.723.723,0,0,0-.263.81l.569,1.751a1.036,1.036,0,0,1-.382,1.175,1.048,1.048,0,0,1-.618.2Z" transform="translate(-319.373 -455.732)" fill="#6c63ff"/>
    <path id="Path_133" data-name="Path 133" d="M427.424,598.8a1.048,1.048,0,0,1-.618-.2l-1.489-1.082a.722.722,0,0,0-.851,0l-1.489,1.082a1.051,1.051,0,0,1-1.618-1.175l.569-1.751a.723.723,0,0,0-.263-.81l-1.489-1.082a1.051,1.051,0,0,1,.618-1.9h1.841a.722.722,0,0,0,.689-.5l.569-1.751a1.051,1.051,0,0,1,2,0l.569,1.751a.722.722,0,0,0,.689.5h1.841a1.052,1.052,0,0,1,.618,1.9l-1.489,1.082a.723.723,0,0,0-.263.81l.569,1.751a1.036,1.036,0,0,1-.382,1.175,1.048,1.048,0,0,1-.618.2Z" transform="translate(-360.789 -455.732)" fill="#6c63ff"/>
    <path id="Path_134" data-name="Path 134" d="M483.933,598.8a1.048,1.048,0,0,1-.618-.2l-1.489-1.082a.724.724,0,0,0-.851,0l-1.489,1.082a1.051,1.051,0,0,1-1.618-1.175l.569-1.751a.723.723,0,0,0-.263-.81l-1.489-1.082a1.051,1.051,0,0,1,.618-1.9h1.841a.722.722,0,0,0,.689-.5l.569-1.751a1.051,1.051,0,0,1,2,0l.569,1.751a.722.722,0,0,0,.689.5H485.5a1.052,1.052,0,0,1,.618,1.9l-1.489,1.082a.723.723,0,0,0-.263.81l.569,1.751a1.036,1.036,0,0,1-.382,1.175A1.048,1.048,0,0,1,483.933,598.8Z" transform="translate(-402.205 -455.732)" fill="#6c63ff"/>
    <path id="Path_135" data-name="Path 135" d="M540.441,598.8a1.048,1.048,0,0,1-.618-.2l-1.489-1.082a.722.722,0,0,0-.851,0l-1.489,1.082a1.051,1.051,0,0,1-1.618-1.175l.569-1.751a.722.722,0,0,0-.263-.81l-1.489-1.082a1.051,1.051,0,0,1,.618-1.9h1.841a.722.722,0,0,0,.689-.5l.569-1.751a1.051,1.051,0,0,1,2,0l.569,1.751a.722.722,0,0,0,.689.5h1.841a1.051,1.051,0,0,1,.618,1.9l-1.489,1.082a.722.722,0,0,0-.263.81l.569,1.751a1.036,1.036,0,0,1-.382,1.175A1.048,1.048,0,0,1,540.441,598.8Z" transform="translate(-443.62 -455.732)" fill="#6c63ff"/>
    <path id="Path_136" data-name="Path 136" d="M591.6,598.622a1.152,1.152,0,0,1-.679-.225,1.138,1.138,0,0,1-.42-1.291l.569-1.751a.619.619,0,0,0-.226-.694l-1.489-1.082a1.155,1.155,0,0,1,.679-2.089h1.841a.619.619,0,0,0,.59-.429l.569-1.751a1.155,1.155,0,0,1,2.2,0l.569,1.751a.619.619,0,0,0,.59.429h1.841a1.155,1.155,0,0,1,.679,2.089l-1.489,1.082a.619.619,0,0,0-.226.694l.569,1.751a1.155,1.155,0,0,1-1.777,1.291l-1.489-1.082a.619.619,0,0,0-.73,0l-1.489,1.082A1.151,1.151,0,0,1,591.6,598.622Zm2.533-1.96a1.152,1.152,0,0,1,.679.221l1.49,1.082a.621.621,0,0,0,.955-.694l-.569-1.751a1.152,1.152,0,0,1,.42-1.291l1.489-1.082a.621.621,0,0,0-.365-1.123h-1.841a1.152,1.152,0,0,1-1.1-.8l-.569-1.751a.621.621,0,0,0-1.181,0l-.569,1.751a1.152,1.152,0,0,1-1.1.8h-1.841a.621.621,0,0,0-.365,1.123l1.49,1.082a1.152,1.152,0,0,1,.419,1.291l-.569,1.751a.621.621,0,0,0,.955.694l1.489-1.082A1.153,1.153,0,0,1,594.133,596.662Z" transform="translate(-484.751 -455.448)" fill="#3f3d56"/>
    <path id="Path_137" data-name="Path 137" d="M249.26,461.5a1.736,1.736,0,1,0,0,3.472h87.873a1.736,1.736,0,0,0,0-3.472Z" transform="translate(-234.57 -362.36)" fill="#ccc"/>
    <path id="Path_138" data-name="Path 138" d="M249.26,495.5a1.736,1.736,0,0,0,0,3.472h87.873a1.736,1.736,0,0,0,0-3.472Z" transform="translate(-234.57 -387.279)" fill="#ccc"/>
    <path id="Path_139" data-name="Path 139" d="M249.26,529.5a1.736,1.736,0,0,0,0,3.472h87.873a1.736,1.736,0,0,0,0-3.472Z" transform="translate(-234.57 -412.198)" fill="#ccc"/>
    <path id="Path_140" data-name="Path 140" d="M249.26,461.5a1.736,1.736,0,1,0,0,3.472h87.873a1.736,1.736,0,0,0,0-3.472Z" transform="translate(-234.57 -362.36)" fill="#ccc"/>
    <path id="Path_141" data-name="Path 141" d="M249.26,495.5a1.736,1.736,0,0,0,0,3.472h87.873a1.736,1.736,0,0,0,0-3.472Z" transform="translate(-234.57 -387.279)" fill="#ccc"/>
    <path id="Path_142" data-name="Path 142" d="M249.26,529.5a1.736,1.736,0,0,0,0,3.472h87.873a1.736,1.736,0,0,0,0-3.472Z" transform="translate(-234.57 -412.198)" fill="#ccc"/>
  </g>
</svg>
