<?xml version="1.0" encoding="utf-8"?>
<!-- Generator: Adobe Illustrator 25.0.1, SVG Export Plug-In . SVG Version: 6.00 Build 0)  -->
<svg version="1.1" id="Layer_1" xmlns="http://www.w3.org/2000/svg" xmlns:xlink="http://www.w3.org/1999/xlink" x="0px" y="0px"
	 width="24px" height="24px" viewBox="0 0 24 24" enable-background="new 0 0 24 24" xml:space="preserve">
<g>
	<path fill="none" d="M0,0h24v24H0V0z"/>
</g>
<g>
	<g>
		<path fill="#47A3FF" d="M12,13V9c0-0.55-0.45-1-1-1H7V6h5V4H9.5V3h-2v1H6C5.45,4,5,4.45,5,5v4c0,0.55,0.45,1,1,1h4v2H5v2h2.5v1h2
			v-1H11C11.55,14,12,13.55,12,13z"/>
		<polygon fill="#47A3FF" points="19.59,12.52 13.93,18.17 11.1,15.34 9.69,16.76 13.93,21 21,13.93 		"/>
	</g>
</g>
</svg>
